<svg width="30" height="28" viewBox="0 0 30 28" fill="none" xmlns="http://www.w3.org/2000/svg">
<rect x="1" y="1" width="27.8667" height="26" rx="8" fill="#090E2A" stroke="#090E2A" stroke-width="2"/>
<path d="M4.66667 13.0667L9.33334 16.3333V23.3333H21V16.3333L25.2 13.5333L23.8 8.86667L19.6 6.53334L15.4 4.66667L11.6667 6.53334L7.46667 7.46667L4.66667 13.0667Z" fill="#FFFDEB"/>
<path d="M15.6426 3.73414C14.0168 3.76133 12.0622 4.47522 11.0975 5.45012L10.7901 5.76071L10.2669 5.7205C8.42401 5.57864 6.28522 6.602 5.06355 8.21018C4.22607 9.31261 3.79957 10.4804 3.74066 11.8325C3.6679 13.5024 4.13803 14.9169 5.11638 15.9721C5.63532 16.5318 6.16868 16.8934 6.76474 17.0897C7.26519 17.2545 8.20721 17.3933 8.5766 17.3566L8.80683 17.3336L8.84495 18.2928C8.86595 18.8203 8.88318 20.4274 8.8833 21.8641L8.88354 24.4764H15.2017H21.5198V21.1377C21.5198 17.9349 21.5243 17.7989 21.6292 17.7989C21.8345 17.7989 23.2022 17.3035 23.5331 17.1094C24.404 16.5983 25.1477 15.8481 25.646 14.9777C26.012 14.3387 26.0751 14.1732 26.2684 13.3473C26.4402 12.6131 26.4597 11.3823 26.3096 10.7478C25.9651 9.29146 25.6379 8.63934 24.7987 7.73657C23.8224 6.68637 22.5813 6.11536 21.2719 6.11381L20.8757 6.11332L20.5303 5.7357C20.1331 5.30127 19.244 4.66289 18.6491 4.38502C18.1352 4.14493 17.0194 3.84889 16.3153 3.76577C16.1003 3.74038 15.8748 3.73025 15.6426 3.73414ZM15.528 6.27237C16.2905 6.26772 16.8621 6.37094 17.3967 6.60965C17.9739 6.86737 18.6095 7.53828 18.8196 8.11164L18.9184 8.3813L19.255 8.2545C19.7333 8.07433 20.6768 8.07954 21.2529 8.26549C22.9004 8.79738 23.8993 10.1988 23.9055 11.987C23.908 12.7283 23.7692 13.2042 23.3621 13.85C23.0198 14.393 22.5615 14.8537 22.0843 15.1344C21.6845 15.3695 20.8372 15.6695 20.408 15.7278L20.0972 15.77L20.0818 18.7784L20.0663 21.7869L19.4299 21.7693L18.7935 21.7518L18.7773 17.915L18.7612 14.0782L18.6211 13.9601C18.4138 13.7852 18.1608 13.809 17.9558 14.0227L17.7823 14.2033V17.9797V21.7559H16.759H15.7356L15.7516 18.862L15.7676 15.9678L15.623 15.8263C15.4277 15.6351 15.0946 15.6262 14.9207 15.8075L14.7908 15.9429L14.8011 18.8494L14.8114 21.7559H13.7957H12.7799L12.8214 17.9906L12.8627 14.2252L12.7185 14.0503C12.5124 13.8007 12.1361 13.8011 11.9297 14.051L11.7849 14.2265L11.8025 17.9913L11.8201 21.7559H11.1207H10.4214L10.4288 18.4017L10.4362 15.0475L9.67469 15.0021C8.47279 14.9305 7.86147 14.7362 7.18755 14.2117C6.16036 13.4121 5.97504 11.6489 6.77807 10.315C7.02221 9.90948 7.7909 9.13819 8.21694 8.87122C9.28769 8.20023 10.6993 8.0369 12.0001 8.43347C12.0933 8.46188 12.1228 8.44017 12.1302 8.33783C12.1426 8.16611 12.3472 7.89016 12.7983 7.43684C13.3136 6.91908 13.7421 6.636 14.301 6.44384C14.7192 6.3001 14.8891 6.27626 15.528 6.27237Z" fill="#090E2A"/>
</svg>
