<?xml version="1.0" encoding="UTF-8" standalone="no"?>
<!-- Created with Inkscape (http://www.inkscape.org/) -->

<svg
   version="1.1"
   id="svg7873"
   width="1024"
   height="959.99805"
   viewBox="0 0 1024 959.99805"
   sodipodi:docname="logo mini full.svg"
   inkscape:version="1.2.2 (1:1.2.2+202305151914+b0a8486541)"
   inkscape:export-filename="logo mini.png"
   inkscape:export-xdpi="96"
   inkscape:export-ydpi="96"
   xml:space="preserve"
   xmlns:inkscape="http://www.inkscape.org/namespaces/inkscape"
   xmlns:sodipodi="http://sodipodi.sourceforge.net/DTD/sodipodi-0.dtd"
   xmlns="http://www.w3.org/2000/svg"
   xmlns:svg="http://www.w3.org/2000/svg"><defs
     id="defs7877"><clipPath
       clipPathUnits="userSpaceOnUse"
       id="clipPath1774"><path
         id="path1776"
         style="fill:#250657;stroke:#000000;stroke-width:0;stroke-linecap:round;stroke-linejoin:round;stroke-opacity:0"
         d="M 41.441406,67.542969 V 977.08398 H 991.93164 V 67.542969 Z M 580.65234,219.83398 c 48.53524,-0.41069 80.35273,21.11144 92.06641,50.27344 0.89057,0.44527 1.7975,0.85368 2.68359,1.3086 6.74952,3.53764 12.95403,7.93933 19.23047,12.22656 4.38591,0.64416 8.7521,1.4242 13.13672,2.06836 11.89843,1.68156 23.31974,5.32019 34.55078,9.47265 16.07488,6.23805 31.02543,14.7794 45.11914,24.63672 9.94096,7.34716 18.75548,15.99459 26.78711,25.35157 9.46612,11.68464 15.51509,25.46459 20.65039,39.45898 6.02429,18.10773 6.33319,37.28844 3.24805,55.98242 -0.52386,3.1743 -1.22791,6.31649 -1.8418,9.47461 -3.43754,15.10273 -9.6499,29.36802 -15.77734,43.5332 -4.51491,9.83703 -8.79594,19.77848 -13.24219,29.64649 -3.89134,9.15816 -7.89836,18.26244 -13.08594,26.7793 -1.41023,2.3153 -2.98433,4.52764 -4.47656,6.79101 -10.60132,14.69028 -23.53031,27.54081 -40.53125,34.7793 -6.22552,2.65062 -12.9689,3.86744 -19.45312,5.80078 -5.88244,0.62639 -11.74138,1.52502 -17.64649,1.87891 -1.31999,0.0791 -2.77452,0.0807 -4.17383,0.11523 0.0483,0.90753 0.0978,1.81499 0.14454,2.72266 0.25944,0.006 0.51993,0.0263 0.77929,0.0312 0.29276,2.78707 0.74626,5.56196 0.87696,8.36132 0.12741,2.72917 -0.38595,16.26001 -0.46485,18.11524 -0.0875,2.05753 -0.22604,4.11275 -0.32617,6.16992 -0.0581,21.13263 -1.25639,42.28997 -4.65039,63.16797 -2.33714,12.85906 -2.51982,14.90595 -5.38477,26.99609 -0.1384,0.58407 -0.23238,1.18772 -0.34375,1.78321 5.03948,2.56855 7.70032,7.70548 10.78125,16.95703 0.58331,1.75155 1.51952,7.13927 1.82227,8.75586 0.42536,3.3003 2.04868,13.81179 0.54297,15.63086 -3.04393,3.67734 -6.09707,7.63808 -9.30078,11.45312 -0.48755,1.61256 -0.99267,3.21984 -1.92383,4.60156 -3.31228,4.91498 -7.47664,9.19761 -11.21484,13.79688 -3.76563,2.19313 -7.36758,4.69583 -11.29688,6.58008 -5.35193,2.56641 -14.10423,4.79194 -19.83789,6.11523 -4.53423,1.04645 -13.70153,2.7571 -18.42773,3.45313 -3.02449,0.44541 -6.06771,0.75449 -9.10157,1.13086 -10.44969,0.2076 -12.7172,0.7471 -23.26562,-1.13086 -4.1193,-0.7334 -8.15312,-1.76761 -12.13281,-2.97461 -14.52,14.93108 -35.91689,11.53171 -45.75,-8.31641 -4.11643,0.57336 -8.35464,1.06658 -10.66407,0.93359 -2.1614,-0.12445 -4.3028,-0.43959 -6.43945,-0.80273 0.20751,-0.0177 0.20422,-0.0199 -5.29883,0.4668 -6.53814,0.21505 -18.73587,1.13627 -22.8125,-3.44532 -1.18004,-1.32617 -2.17868,-2.81289 -3.25976,-4.22851 -15.77951,15.30974 -33.06985,17.503 -45.64454,12.14648 -4.19956,1.86753 -8.39238,2.05173 -12.09179,-0.98633 -6.93017,-5.69112 -12.3194,-10.61766 -16.57032,-15.04882 -6.08988,4.75111 -14.31218,7.35132 -21.66015,7.64257 -5.09549,0.20196 -7.45766,-0.32476 -12.08789,-1.02539 -2.26524,-0.41842 -4.51019,-0.94111 -6.75586,-1.45703 -2.13663,-0.20106 -4.13295,-0.6828 -5.95899,-1.45703 -1.86669,-0.48747 -3.73862,-0.95718 -5.59375,-1.48242 -2.06602,-0.60257 -4.08991,-1.26658 -6.21093,-1.55859 -6.68608,-0.87936 -15.23004,-3.60213 -20.79883,-8.2461 -24.05466,10.82679 -49.9844,-12.2329 -35.20508,-54.65039 3.89879,-11.18971 10.97562,-20.94124 17.69141,-30.56445 1.57304,-2.25407 3.17074,-4.49091 4.76172,-6.73242 -0.51154,-1.05786 -1.10953,-2.07217 -1.61133,-3.13477 -3.74427,-8.55531 -7.15531,-17.28977 -8.90625,-26.50391 -0.32652,-1.83511 -0.71515,-3.6609 -0.98047,-5.50585 -0.63774,-4.43467 -0.90816,-8.91979 -0.68555,-13.36329 -0.5812,-1.95357 -1.08114,-3.75106 -1.38476,-5.12695 -0.94237,-4.27038 -1.41064,-8.63323 -2.11524,-12.94922 3.33478,-1.27207 6.635,-2.66761 9.92578,-4.0957 2.88593,-5.25474 5.59432,-7.4296 8.17383,-7.19336 -0.18547,-1.56292 -0.42357,-3.11691 -0.61719,-4.67774 -0.98358,-1.94192 -1.12788,-4.23526 -1.63671,-6.36328 -1.75181,-7.32539 -2.98726,-14.78271 -3.76954,-22.27148 -0.0227,-1.04845 -0.0434,-1.81662 -0.0664,-2.71875 -1.42583,-1.30015 -2.84885,-2.60215 -4.23047,-3.95508 -6.75089,-1.37532 -10.81009,-5.25069 -12.5,-11.32031 -1.79679,-0.41555 -3.56576,-0.9313 -5.35352,-1.38086 2.97088,22.21694 -4.16517,33.30025 -40.16797,13.0918 -6.29728,-3.5347 -12.76267,-6.7575 -19.20703,-10.01368 -9.38407,-4.36512 -18.61992,-9.01272 -27.67773,-14.01953 -12.47285,-7.08012 -22.77919,-16.90366 -31.92578,-27.8144 -8.98523,-11.01919 -14.34482,-23.17104 -17.58008,-36.94922 -1.05027,-4.47281 -1.3774,-8.85146 -1.83594,-13.38281 -1.15109,-11.38657 0.2389,-22.62525 2.61914,-33.73828 2.11879,-8.49437 5.72551,-16.48269 9.07032,-24.53711 2.4362,-5.84465 5.0777,-11.62713 8.20312,-17.14063 1.63036,-5.27498 3.33488,-10.52187 5.45117,-15.61523 1.95906,-4.71487 5.03707,-8.88955 7.82617,-13.16602 5.61885,-8.61476 12.84545,-16.13828 19.83594,-23.61328 3.97012,-3.94612 8.10537,-7.7181 12.20703,-11.52539 1.99349,-2.46274 3.98805,-4.38038 6.07422,-5.73633 6.3732,-5.46288 13.11933,-10.46209 20.58203,-14.52929 17.05197,-9.43223 34.89109,-17.2148 54.09766,-21.07618 14.09123,-3.41043 28.04955,-7.35831 42.11719,-10.86523 13.44915,-3.57156 26.92784,-7.03276 40.32421,-10.79883 2.41812,-0.7315 4.8351,-1.46565 7.25196,-2.20117 2.75326,-2.05232 5.53336,-4.07258 8.29687,-6.11133 12.14069,-8.46785 26.2123,-13.0809 40.21875,-17.38086 12.07798,-3.80858 24.56241,-5.2287 37.12696,-5.48437 9.85886,-3.32854 19.74268,-6.58242 29.70312,-9.59375 21.68647,-6.55659 41.40806,-9.57204 58.97656,-9.72071 z M 332.10938,580.68164 c -0.10452,0.073 -0.13614,2.22552 0.46874,2.33203 -0.13963,-0.7383 -0.29241,-1.47492 -0.42187,-2.21484 -0.0165,-0.094 -0.0315,-0.12795 -0.0469,-0.11719 z m 278.01171,34.57031 c -0.75832,6.78227 0.34154,12.3229 4.25782,15.99024 -1.3185,-4.92277 -2.64973,-9.84232 -3.94532,-14.77149 -0.1059,-0.40567 -0.20735,-0.81285 -0.3125,-1.21875 z m 86.13477,97.98828 c -0.009,4.18213 -0.0653,8.36425 -0.13477,12.54493 0.11788,0.0371 0.236,0.0742 0.35157,0.11328 2.12861,-6.66819 2.99976,-10.24603 -0.2168,-12.65821 z m 6.84766,30.19532 c 2.63759,5.62763 1.37506,0.76112 0.64648,0.38476 -0.21659,-0.11188 -0.4305,-0.26507 -0.64648,-0.38476 z m -220.74414,17.5625 c -0.11484,0.033 -2.12904,0.97779 -2.75,1.25586 0.0689,0.0569 0.15342,0.12073 0.22265,0.17773 1.34447,-0.73509 2.77971,-1.50613 2.52735,-1.43359 z m 45.35742,41.15625 c 0.11607,0.0317 0.27707,0.0927 0.38476,0.11914 0.17935,0.0441 0.52087,0.046 0.75196,0.0781 -0.37866,-0.0684 -0.75791,-0.13038 -1.13672,-0.19726 z m 4.38086,0.75586 c -1.0051,0.11359 -0.49103,0.0792 0.18164,0.0273 -0.0604,-0.0103 -0.12123,-0.017 -0.18164,-0.0273 z" /></clipPath></defs><sodipodi:namedview
     id="namedview7875"
     pagecolor="#505050"
     bordercolor="#eeeeee"
     borderopacity="1"
     inkscape:showpageshadow="0"
     inkscape:pageopacity="0"
     inkscape:pagecheckerboard="0"
     inkscape:deskcolor="#505050"
     showgrid="false"
     inkscape:lockguides="false"
     inkscape:zoom="0.4609375"
     inkscape:cx="330.84746"
     inkscape:cy="720.27119"
     inkscape:window-width="1280"
     inkscape:window-height="964"
     inkscape:window-x="0"
     inkscape:window-y="0"
     inkscape:window-maximized="1"
     inkscape:current-layer="g1427" /><g
     id="g1427"
     inkscape:label="draw"
     transform="translate(5e-7,-32)"><path
       id="rect1421"
       style="display:inline;stroke:#000000;stroke-width:0;stroke-linecap:round;stroke-linejoin:round;stroke-opacity:0"
       d="M 308.57031,32 C 138.21531,32 0,170.21531 0,340.57031 v 342.85742 c 0,170.35501 138.21531,308.57032 308.57031,308.57032 h 406.875 c 169.43362,0 307.07079,-136.7258 308.55469,-305.81055 V 337.81055 C 1022.5161,168.72581 884.87893,32 715.44531,32 Z m 0,68.57227 h 406.875 c 133.55266,0 240,106.44541 240,239.99804 v 342.85742 c 0,133.55263 -106.44734,240 -240,240 h -406.875 c -133.55263,0 -239.998044,-106.44737 -239.998044,-240 V 340.57031 c 0,-133.55263 106.445414,-239.99804 239.998044,-239.99804 z" /><path
       style="display:inline;fill:#000000;fill-opacity:1;stroke:#000000;stroke-width:0;stroke-linecap:round;stroke-linejoin:round;stroke-opacity:0"
       d="M 245.38136,67.542373 87.635593,181.22034 46.991525,302.60169 41.440678,740.78814 142.86441,925.16949 401.9661,977.08475 830.74576,935.77966 984.22034,788.57627 991.9322,318.44915 969.61017,193.14407 795.38136,78.228814 Z"
       id="path1513"
       clip-path="url(#clipPath1774)" /><path
       id="path7883"
       style="display:inline;opacity:1;fill:#000000"
       inkscape:label="chapeu"
       d="m 519.20883,319.92733 c -27.40448,0.43987 -60.35127,11.98612 -76.61328,27.75391 l -5.18164,5.02344 -8.81836,-0.6504 c -31.06427,-2.29434 -67.11616,14.25714 -87.70898,40.26758 -14.11665,17.83038 -21.30582,36.71752 -22.29883,58.58594 -1.22644,27.00916 6.69808,49.88729 23.18945,66.95312 8.74739,9.0522 17.73772,14.90091 27.78516,18.07618 8.43568,2.66581 24.31459,4.91019 30.54101,4.3164 l 3.88086,-0.37109 0.64258,15.51367 c 0.35389,8.53174 0.64448,34.52442 0.64648,57.76172 l 0.004,42.25 h 106.5 106.5 v -54 c 0,-51.80029 0.0757,-54 1.84375,-54 3.46037,0 26.51447,-8.01238 32.0918,-11.15234 14.68111,-8.26684 27.21716,-20.39954 35.61718,-34.47657 6.16783,-10.3361 7.23167,-13.01249 10.49024,-26.37109 2.89648,-11.87418 3.22564,-31.78077 0.69531,-42.04297 -5.80774,-23.55472 -11.32267,-34.10185 -25.46875,-48.70312 -16.45598,-16.98572 -37.37663,-26.2211 -59.44922,-26.2461 l -6.67773,-0.008 -5.82227,-6.10742 c -6.69572,-7.02643 -21.68169,-17.35148 -31.70898,-21.8457 -8.66348,-3.88306 -27.47194,-8.67121 -39.33985,-10.01563 -3.6239,-0.41053 -7.42488,-0.57456 -11.33984,-0.51172 z m -1.93164,41.05274 c 12.85392,-0.0752 22.48876,1.59429 31.5,5.45507 9.7291,4.16843 20.44276,15.01947 23.98438,24.29297 l 1.66601,4.36133 5.67383,-2.05078 c 8.06237,-2.91402 23.96628,-2.82982 33.67578,0.17773 27.77172,8.60265 44.60878,31.26812 44.71289,60.19141 0.0431,11.98928 -2.29671,19.68687 -9.1582,30.13086 -5.77048,8.7832 -13.49646,16.23447 -21.53907,20.77344 -6.73929,3.80337 -21.02199,8.65474 -28.25585,9.59765 l -5.24024,0.6836 -0.25976,48.65625 -0.25977,48.6582 -10.72852,-0.2832 -10.72656,-0.28321 -0.27344,-62.05664 -0.27148,-62.05468 -2.36133,-1.91016 c -3.49364,-2.82851 -7.75956,-2.44367 -11.21484,1.01172 l -2.92383,2.92187 v 61.07813 61.07617 h -17.25 -17.25 l 0.26953,-46.80664 0.26953,-46.80859 -2.4375,-2.28907 c -3.29139,-3.09209 -8.90563,-3.23694 -11.83789,-0.30468 l -2.18945,2.18945 0.17383,47.00976 0.17383,47.00977 h -17.1211 -17.12305 l 0.69922,-60.90039 0.69727,-60.90039 -2.43164,-2.82813 c -3.47282,-4.03733 -9.8171,-4.03132 -13.29492,0.0117 l -2.44141,2.83789 0.29687,60.89063 0.29688,60.88869 h -11.78906 -11.78906 l 0.125,-54.25 0.125,-54.25 -12.83594,-0.73438 c -20.25958,-1.15937 -30.56415,-4.30144 -41.92383,-12.78515 -17.3146,-12.9311 -20.4384,-41.44979 -6.90234,-63.02344 4.11529,-6.55899 17.07248,-19.03361 24.2539,-23.35156 18.04889,-10.85232 41.8439,-13.49402 63.76953,-7.08008 1.57091,0.45954 2.06866,0.10846 2.19336,-1.54687 0.20921,-2.77731 3.65721,-7.24044 11.26172,-14.57227 8.68569,-8.37425 15.90867,-12.95275 25.33008,-16.06055 7.04842,-2.32494 9.91312,-2.71043 20.68164,-2.77343 z"
       transform="matrix(2.0374659,0,0,2.1234371,-521.9702,-520.52247)" /></g></svg>
